<?xml version="1.0" encoding="UTF-8" standalone="no"?>
<!-- Created with Inkscape (http://www.inkscape.org/) -->

<svg
   width="186.02826mm"
   height="77.028206mm"
   viewBox="0 0 186.02826 77.028206"
   version="1.1"
   id="svg1"
   xml:space="preserve"
   xmlns="http://www.w3.org/2000/svg"
   xmlns:svg="http://www.w3.org/2000/svg"><defs
     id="defs1"><linearGradient
       id="bridgeGradient"
       x1="-4.291341e-07"
       y1="1.5350446e-06"
       x2="119.70557"
       y2="1.5350446e-06"
       gradientTransform="matrix(1.5540486,0,0,0.64348052,13.219021,94.617551)"
       gradientUnits="userSpaceOnUse">
      <stop
   offset="0%"
   style="stop-color:#7C3AED;stop-opacity:1"
   id="stop1" />
      <stop
   offset="50%"
   style="stop-color:#3B82F6;stop-opacity:1"
   id="stop2" />
      <stop
   offset="100%"
   style="stop-color:#00D4FF;stop-opacity:1"
   id="stop3" />
    </linearGradient></defs><g
     id="layer1"
     transform="translate(-13.21902,-94.617551)"><path
       style="fill:url(#bridgeGradient)"
       d="m 13.224301,171.21978 c 0,-0.23171 0.238125,-0.72402 0.529167,-1.09402 0.500725,-0.63656 0.529113,-1.07254 0.528177,-8.11152 -9.26e-4,-6.96749 -0.03445,-7.49368 -0.529166,-8.30509 -1.026889,-1.68425 -1.078141,-1.66644 4.565051,-1.58682 l 5.093229,0.0719 0.07666,2.0162 0.07666,2.01619 -1.337252,0.85811 c -2.005464,1.28691 -2.240147,1.2275 -2.334996,-0.59102 l -0.07935,-1.52135 h -0.912838 -0.912838 v 2.91034 2.91034 l 1.270985,-0.70962 c 0.641102,-0.35794 1.485682,-0.45955 1.485682,-0.45955 0.511102,0.16078 0.599877,1.69163 0.830091,2.7951 0.185436,0.88885 -0.330522,0.63107 -2.197696,1.79605 l -1.389062,0.86667 v 2.24668 c 0,1.84552 0.09747,2.38356 0.545898,3.01332 0.300243,0.42165 0.47181,0.88651 0.38126,1.03303 -0.09349,0.15127 -1.358394,0.26639 -2.927148,0.26639 -2.350324,0 -2.76251,-0.0629 -2.76251,-0.42129 z m 13.23505,-0.0417 c 0.0032,-0.25466 0.238713,-0.76068 0.523283,-1.12448 0.485903,-0.62119 0.5174,-1.12051 0.5174,-8.20209 0,-7.08157 -0.0315,-7.58089 -0.5174,-8.20208 -0.28457,-0.3638 -0.520047,-0.86982 -0.523283,-1.12448 -0.0054,-0.42445 0.400647,-0.46302 4.874154,-0.46302 4.775679,0 4.895913,0.0136 5.622396,0.63791 0.742152,0.63774 0.742382,0.63899 0.828453,4.52416 l 0.0861,3.88624 -1.204641,1.15425 -1.204641,1.15425 1.171704,3.08811 c 0.644437,1.69847 1.415673,3.34781 1.713858,3.66521 0.298185,0.31741 0.542154,0.77779 0.542154,1.02307 0,0.38992 -0.349148,0.44597 -2.778125,0.44597 -2.561473,0 -2.778125,-0.0395 -2.778125,-0.50712 0,-0.27892 0.134276,-0.55188 0.29839,-0.60658 0.472906,-0.15764 -1.387745,-4.99905 -1.88589,-4.90709 -0.300831,0.0555 -0.41573,0.53893 -0.474789,1.99747 -0.06457,1.59467 0.01472,2.0543 0.463021,2.68387 0.297514,0.41782 0.540935,0.89013 0.540935,1.04956 0,0.19256 -0.977175,0.28989 -2.910417,0.28989 -2.597677,0 -2.909784,-0.0498 -2.904533,-0.46302 z m 6.542554,-10.44264 1.124479,-0.76143 v -2.50083 -2.50083 h -1.455208 -1.455208 v 3.4552 c 0,2.69066 0.07318,3.4125 0.330729,3.26226 0.181901,-0.10611 0.836745,-0.53558 1.455208,-0.95437 z m 8.803279,10.44823 c 0.0032,-0.25774 0.238713,-0.76627 0.523283,-1.13007 0.485903,-0.62119 0.517401,-1.12051 0.517401,-8.20209 0,-7.08157 -0.0315,-7.58089 -0.517401,-8.20208 -0.28457,-0.3638 -0.520047,-0.87233 -0.523283,-1.13007 -0.0055,-0.4352 0.366727,-0.4635 5.219635,-0.39688 l 5.22552,0.0717 0.0761,2.13872 0.0761,2.13872 -1.48963,0.98907 c -0.8193,0.54398 -1.65723,0.92475 -1.86207,0.84614 -0.26323,-0.10101 -0.37244,-0.61084 -0.37244,-1.73872 v -1.5958 h -1.05832 -1.05834 v 3.17255 3.17256 l 1.32963,-0.81813 c 0.793652,-0.48834 1.318261,-0.68212 1.645441,-0.55002 0.335943,0.13564 0.426942,1.90264 0.424105,3.1273 -0.04279,0.73105 -0.168516,0.44552 -1.825926,1.51867 l -1.57325,1.01865 v 1.55838 1.55837 h 1.05834 c 1.05788,0 1.05833,-4.5e-4 1.05833,-1.05563 0,-0.98528 0.0964,-1.11964 1.44647,-2.01603 2.16476,-1.43733 2.28889,-1.29041 2.19973,2.60348 l -0.0743,3.24631 -5.22552,0.0717 c -4.852907,0.0666 -5.225098,0.0383 -5.219634,-0.39687 z m 14.287505,0 c 0.003,-0.25774 0.23871,-0.76627 0.52328,-1.13007 0.4859,-0.62119 0.5174,-1.12051 0.5174,-8.20209 0,-7.08157 -0.0315,-7.58089 -0.5174,-8.20208 -0.28457,-0.3638 -0.52005,-0.87233 -0.52328,-1.13007 -0.005,-0.4352 0.36672,-0.4635 5.21963,-0.39688 l 5.22552,0.0717 0.076,2.13203 0.076,2.13203 -1.46144,1.00653 c -1.90472,1.31184 -2.26248,1.17005 -2.26248,-0.89666 v -1.5958 h -1.05834 -1.05834 v 3.20098 3.20098 l 0.8599,-0.56942 c 1.59173,-1.05406 2.06221,-1.21366 2.33,-0.79042 0.13287,0.21001 0.24341,1.05246 0.24563,1.87211 l 0.004,1.49028 -1.71979,1.12049 -1.71979,1.12049 v 1.55642 1.55642 h 1.05833 c 1.05697,0 1.05834,-0.001 1.05834,-1.0502 0,-0.9864 0.0903,-1.10796 1.48608,-2.00084 2.16104,-1.3824 2.24852,-1.27781 2.16012,2.58286 l -0.0743,3.24631 -5.22552,0.0717 c -4.85291,0.0666 -5.2251,0.0383 -5.21964,-0.39687 z m 14.01703,0.0361 c 0,-0.23171 0.23812,-0.72402 0.52917,-1.09402 0.5015,-0.63755 0.52885,-1.06851 0.52328,-8.24381 -0.005,-7.10684 -0.0376,-7.61165 -0.52328,-8.23255 -0.28457,-0.3638 -0.52005,-0.86982 -0.52329,-1.12448 -0.005,-0.4231 0.38308,-0.46302 4.50517,-0.46302 4.68664,0 5.79385,0.2157 6.17251,1.20248 0.0904,0.23556 0.16436,4.22856 0.16436,8.87333 0,8.09225 -0.0221,8.46713 -0.52917,8.97419 -0.49103,0.49103 -0.88195,0.52917 -5.42396,0.52917 -4.3006,0 -4.89479,-0.0511 -4.89479,-0.42129 z m 7.27604,-9.3683 v -6.74687 l -1.25677,-0.0806 -1.25677,-0.0806 v 6.90816 6.90816 l 1.25677,-0.0806 1.25677,-0.0806 z m 8.33438,9.26042 c -0.50774,-0.50774 -0.52917,-0.88194 -0.52917,-9.24121 v -8.71205 l 0.69714,-0.54837 c 0.62354,-0.49048 1.05788,-0.54837 4.11418,-0.54837 3.54437,0 4.72426,0.27937 5.07849,1.20248 0.0904,0.23556 0.16436,4.17444 0.16436,8.75306 v 8.32476 l -0.64944,0.64944 c -0.62999,0.62998 -0.76465,0.64943 -4.49791,0.64943 -3.49571,0 -3.89699,-0.0485 -4.37765,-0.52917 z m 6.08541,-9.26042 v -6.87916 h -1.5875 -1.5875 v 6.87916 6.87917 h 1.5875 1.5875 z m 7.14375,9.3683 c 0,-0.23171 0.23813,-0.72402 0.52917,-1.09402 0.5015,-0.63755 0.528861,-1.06851 0.523281,-8.24381 -0.005,-7.10684 -0.0376,-7.61165 -0.523281,-8.23255 -0.28457,-0.3638 -0.52005,-0.87429 -0.52328,-1.13441 -0.005,-0.42595 0.23731,-0.46539 2.441511,-0.39687 l 2.4474,0.0761 1.95264,5.74903 c 1.07396,3.16197 2.04581,5.69146 2.15967,5.62109 0.11387,-0.0704 1.00597,-2.53838 1.98245,-5.48445 0.97648,-2.94608 1.89444,-5.50533 2.03991,-5.68723 0.17585,-0.21989 1.05172,-0.33073 2.61334,-0.33073 2.58438,0 2.71451,0.10407 1.81969,1.45521 -0.49418,0.74618 -0.52579,1.25512 -0.52743,8.4918 -0.002,7.36322 0.0213,7.71889 0.52743,8.17695 0.29104,0.26339 0.52916,0.69856 0.52916,0.96705 0,0.44349 -0.25418,0.48816 -2.77812,0.48816 -3.09974,0 -3.18918,-0.0668 -2.24106,-1.67376 0.47894,-0.81173 0.52905,-1.28873 0.46303,-4.40725 l -0.074,-3.49701 -1.29538,3.87143 c -1.11297,3.32628 -1.25221,3.96618 -0.98882,4.54426 0.1686,0.37005 0.23848,0.78295 0.15528,0.91757 -0.0832,0.13462 -1.17015,0.24476 -2.41545,0.24476 h -2.26419 l 0.18567,-0.72761 c 0.31892,-1.24982 0.18337,-1.95366 -1.03179,-5.35781 l -1.1806,-3.30729 -0.0141,3.60234 c -0.0126,3.21434 0.0429,3.6748 0.51504,4.27506 1.06104,1.3489 0.81408,1.51531 -2.24896,1.51531 -2.364611,0 -2.778131,-0.0627 -2.778131,-0.42129 z m 21.166661,0 c 0,-0.23171 0.23813,-0.72402 0.52917,-1.09402 0.5015,-0.63755 0.52886,-1.06851 0.52328,-8.24381 -0.006,-7.10684 -0.0376,-7.61165 -0.52328,-8.23255 -0.28457,-0.3638 -0.52005,-0.87703 -0.52328,-1.14052 -0.006,-0.44857 0.31352,-0.47382 5.01448,-0.39687 6.24999,0.10231 6.13461,0.0358 6.3066,3.63335 0.1307,2.73359 -0.0119,3.52228 -0.77461,4.28502 l -0.54669,0.54669 0.54041,0.37852 c 1.35885,0.95177 1.36017,0.95698 1.36017,5.36659 0,5.68295 0.4494,5.31889 -6.56549,5.31889 -4.7085,0 -5.34076,-0.0499 -5.34076,-0.42129 z m 8.20209,-4.98465 c 0,-2.42145 -0.0216,-2.51078 -0.72761,-3.00934 -0.72686,-0.51327 -0.72862,-0.51315 -1.71979,0.11813 l -0.99219,0.63193 v 2.3774 2.3774 h 1.71979 1.7198 z m -0.52917,-9.58048 v -1.68233 h -1.45521 -1.45521 v 2.64853 2.64854 l 1.45521,-0.96621 1.45521,-0.9662 z m 7.9375,14.56513 c 0,-0.23171 0.23812,-0.72402 0.52917,-1.09402 0.50127,-0.63727 0.52916,-1.07335 0.52916,-8.27428 0,-7.20092 -0.0279,-7.63701 -0.52916,-8.27428 -1.1503,-1.46236 -0.9983,-1.5153 4.35087,-1.5153 4.77567,0 4.89591,0.0136 5.62239,0.63791 0.73674,0.63308 0.74302,0.66536 0.82951,4.26013 0.0808,3.35774 -0.16496,5.1342 -0.71456,5.16564 -0.0915,0.005 -0.49775,0.28078 -0.90281,0.61232 l -0.73647,0.60281 1.18651,3.12711 c 0.65257,1.71992 1.43047,3.38681 1.72865,3.70421 0.29819,0.31741 0.54216,0.77779 0.54216,1.02307 0,0.38992 -0.34915,0.44597 -2.77813,0.44597 -2.79788,0 -3.27776,-0.18828 -2.48938,-0.97667 0.42359,-0.42358 -1.33245,-5.14451 -1.87624,-5.04412 -0.30185,0.0557 -0.41574,0.54396 -0.47563,2.03895 -0.0664,1.65724 0.008,2.08322 0.47513,2.71484 0.30464,0.41204 0.48188,0.86568 0.39387,1.00808 -0.088,0.14241 -1.40315,0.25892 -2.92253,0.25892 -2.35033,0 -2.76251,-0.0629 -2.76251,-0.42129 z m 6.54844,-10.48437 1.12448,-0.76143 v -2.50083 -2.50083 h -1.45521 -1.45521 v 3.4552 c 0,2.69066 0.0732,3.4125 0.33073,3.26226 0.1819,-0.10611 0.83674,-0.53558 1.45521,-0.95437 z m 8.80328,10.44264 c 0.003,-0.25466 0.23871,-0.76068 0.52328,-1.12448 0.48512,-0.62019 0.5177,-1.12365 0.52229,-8.06979 0.005,-6.94284 -0.0283,-7.46277 -0.52328,-8.27463 -0.95419,-1.56502 -0.84266,-1.64725 2.23433,-1.64725 1.71616,0 2.83034,0.10974 2.94158,0.28974 0.0985,0.15935 -0.0731,0.63078 -0.38126,1.04762 -0.54055,0.73113 -0.56033,1.02995 -0.56033,8.46681 0,7.36359 0.0245,7.74328 0.5459,8.47558 0.30024,0.42165 0.47181,0.88651 0.38126,1.03303 -0.0935,0.15127 -1.35839,0.26639 -2.92715,0.26639 -2.45681,0 -2.76186,-0.0512 -2.75662,-0.46302 z m 8.73125,0.016 c 0.003,-0.26348 0.23871,-0.77671 0.52328,-1.14051 0.4859,-0.62119 0.5174,-1.12051 0.5174,-8.20209 0,-7.08157 -0.0315,-7.58089 -0.5174,-8.20208 -0.28457,-0.3638 -0.52005,-0.86982 -0.52328,-1.12448 -0.005,-0.4231 0.38307,-0.46302 4.50517,-0.46302 4.68663,0 5.79384,0.2157 6.1725,1.20248 0.0904,0.23556 0.16057,4.1988 0.15594,8.80718 -0.007,7.05177 -0.0717,8.4627 -0.40777,8.90805 -0.37054,0.49097 -0.76142,0.5351 -5.41555,0.61135 -4.69692,0.077 -5.0158,0.0517 -5.01029,-0.39688 z m 7.27015,-9.3426 v -6.74687 l -1.25677,-0.0806 -1.25677,-0.0806 v 6.90816 6.90816 l 1.25677,-0.0806 1.25677,-0.0806 z m 8.39325,9.37771 c -0.58772,-0.41166 -0.58804,-0.41657 -0.58399,-9.19427 0.002,-4.83032 0.0915,-8.9134 0.19844,-9.07351 0.46647,-0.69861 1.48495,-0.89951 4.56001,-0.89951 4.4528,0 5.00496,0.35272 5.01867,3.20599 l 0.008,1.75077 -1.06826,0.70694 c -2.38225,1.5765 -2.63591,1.46223 -2.63591,-1.18742 v -1.56586 h -1.32738 -1.32739 l 0.0706,6.81302 0.0706,6.81302 1.52135,0.0794 1.52136,0.0794 v -1.58313 c 0,-1.53037 -0.0242,-1.58592 -0.72761,-1.66685 -0.68595,-0.0789 -0.73207,-0.16839 -0.80569,-1.56277 -0.0909,-1.72191 -0.0451,-1.77605 2.30652,-2.72793 2.85038,-1.15375 2.66636,-1.4519 2.66636,4.32007 v 5.00788 l -0.69714,0.54837 c -0.63064,0.49606 -1.05409,0.54837 -4.43905,0.54837 -2.95849,0 -3.86501,-0.0862 -4.32994,-0.41188 z m 13.1703,-0.004 c 0,-0.23478 0.23812,-0.72961 0.52916,-1.09961 0.50151,-0.63755 0.52886,-1.06851 0.52329,-8.24381 -0.006,-7.10684 -0.0376,-7.61165 -0.52329,-8.23255 -0.28457,-0.3638 -0.52005,-0.87233 -0.52328,-1.13007 -0.005,-0.4352 0.36673,-0.4635 5.21964,-0.39688 l 5.22552,0.0717 0.0766,2.16799 0.0766,2.16799 -1.49654,0.95733 c -0.8231,0.52653 -1.66124,0.89412 -1.86254,0.81687 -0.25564,-0.0981 -0.36601,-0.62165 -0.36601,-1.73625 v -1.5958 h -1.05833 -1.05833 v 3.20543 3.20543 l 0.66145,-0.42731 c 0.36381,-0.23502 0.9582,-0.61899 1.32088,-0.85327 1.11388,-0.71954 1.45725,-0.34155 1.45725,1.60419 v 1.724 l -1.71979,1.08615 -1.71979,1.08615 v 1.56378 1.56378 h 1.05833 1.05833 v -1.06162 c 0,-0.99931 0.0866,-1.117 1.47493,-2.00512 2.16216,-1.38312 2.25977,-1.2663 2.17128,2.59856 l -0.0743,3.24631 -5.22552,0.0717 c -4.66142,0.064 -5.22552,0.0257 -5.22552,-0.35514 z M 13.621176,146.221 c 2.28999,-0.37241 8.893978,-1.18422 8.974929,-1.10327 0.04259,0.0426 0.02107,0.3723 -0.04782,0.73268 l -0.125257,0.65524 -5.062385,-0.0348 c -3.611496,-0.0248 -4.683234,-0.0964 -3.739468,-0.24989 z m 16.536458,-1.1399 v -1.42456 l 2.579688,-0.8613 c 1.418828,-0.47372 3.642016,-1.32095 4.940418,-1.88274 1.298401,-0.56179 2.399729,-1.02143 2.447395,-1.02143 0.04767,0 0.08667,1.48828 0.08667,3.30729 v 3.30729 h -5.027087 -5.027084 z m 17.462505,-3.19523 c 0,-3.36646 0.0897,-4.69759 0.33072,-4.9066 0.18191,-0.15775 1.4023,-0.97321 2.71198,-1.81212 1.30969,-0.83891 3.36656,-2.32187 4.57082,-3.29548 1.20427,-0.9736 2.3056,-1.77019 2.4474,-1.77019 0.16183,0 0.25783,3.05375 0.25783,8.20209 v 8.20208 h -5.15938 -5.15937 z m 17.72708,-6.25362 v -10.8734 l 1.40312,-1.62816 c 2.78858,-3.23583 6.68428,-8.72668 7.95997,-11.21931 0.24204,-0.47294 0.55609,-0.8599 0.69787,-0.8599 0.16476,0 0.25779,6.39691 0.25779,17.72709 v 17.72708 h -5.15938 -5.15937 z m 70.379161,-6.70578 c 0,-10.29636 0.0999,-17.64092 0.24117,-17.72823 0.13264,-0.082 0.68933,0.65514 1.23708,1.63803 1.30304,2.33822 4.46142,6.75757 6.89752,9.65133 l 1.94298,2.308 v 10.85502 10.85503 h -5.15938 -5.15937 z m 17.72708,9.3771 c 0,-5.77313 0.0859,-8.20209 0.29013,-8.20209 0.15957,0 0.81857,0.46515 1.46443,1.03367 0.64587,0.56851 2.56914,1.99035 4.27394,3.15963 4.62781,3.17413 4.17106,2.31804 4.07975,7.64681 l -0.0782,4.56406 h -5.01502 -5.01502 z m 17.72709,4.86648 c 0,-2.56775 0.0761,-3.30294 0.33072,-3.19374 3.73029,1.60007 4.97228,2.09244 7.14375,2.83205 l 2.57969,0.87865 v 1.40932 1.40932 h -5.02708 -5.02708 z m 17.58633,2.7798 c -0.27951,-0.88067 0.13726,-0.9967 2.25742,-0.62844 1.0914,0.18958 3.28404,0.47396 4.87253,0.63196 1.58849,0.15801 2.94779,0.34691 3.02066,0.41978 0.0729,0.0729 -2.14151,0.1325 -4.92085,0.1325 -4.9017,0 -5.05865,-0.0167 -5.22976,-0.5558 z m -96.233721,-0.16288 c -0.93083,-0.141 -0.93471,-0.50603 -0.0559,-5.264 0.36941,-2.00016 0.62128,-3.76795 0.5597,-3.92842 -0.0616,-0.16047 -0.81031,-0.50836 -1.66385,-0.77309 -0.85354,-0.26473 -2.60211,-0.84446 -3.88572,-1.28827 -2.61168,-0.90302 -2.55544,-0.78497 -1.52222,-3.19539 l 0.51182,-1.19403 3.78878,1.29514 c 2.08383,0.71233 3.87808,1.29813 3.98722,1.30178 0.10914,0.004 0.19843,-0.16626 0.19843,-0.37756 0,-0.82038 2.73991,-5.70203 4.3266,-7.70862 3.094711,-3.9137 7.897101,-7.05358 12.739031,-8.32899 2.70587,-0.71276 7.52411,-0.95434 10.4858,-0.52576 2.3958,0.3467 5.24679,1.03884 5.62398,1.36535 0.33449,0.28954 -1.02264,4.47782 -2.24774,6.93677 -1.39697,2.80394 -2.37824,4.1934 -4.58446,6.4915 -3.25083,3.38623 -6.69792,5.44884 -11.1478,6.67045 -2.58943,0.71086 -7.84318,0.97399 -10.667441,0.53427 -1.07488,-0.16736 -1.99703,-0.26158 -2.04923,-0.20938 -0.0522,0.0522 -0.41472,1.96079 -0.80561,4.24133 l -0.71072,4.14643 -1.07651,-0.0396 c -0.59209,-0.0218 -1.40394,-0.0892 -1.80412,-0.14987 z M 108.20972,133.66 c 5.44178,-1.28299 10.90462,-5.69794 13.47929,-10.89368 1.52291,-3.07326 1.53264,-2.91709 -0.19715,-3.16463 -2.26048,-0.32349 -6.30642,-0.18523 -8.3159,0.28419 -2.24843,0.52522 -4.60976,1.59228 -6.96334,3.14665 -2.90539,1.9188 -5.15019,4.5625 -6.977811,8.21772 -0.63401,1.26803 -1.09447,2.3638 -1.02323,2.43504 0.0712,0.0712 0.83191,0.23999 1.69039,0.37501 2.008341,0.31586 6.108031,0.11833 8.307751,-0.4003 z M 82.015969,107.28784 v -2.96989 l 2.3151,-2.2759 c 1.27331,-1.25175 2.99245,-2.707139 3.82032,-3.234209 1.51197,-0.96261 3.50953,-2.04386 3.77591,-2.04386 0.0786,0 0.14284,1.70249 0.14284,3.783309 v 3.78331 l -0.91001,0.32906 c -1.65274,0.59763 -4.74714,2.42429 -6.81563,4.02331 -1.12039,0.86612 -2.10266,1.57476 -2.18281,1.57476 -0.0802,0 -0.14572,-1.33645 -0.14572,-2.96989 z m 44.979161,1.35407 c -1.09141,-0.8649 -3.32593,-2.25415 -4.96561,-3.08722 l -2.98123,-1.51467 0.0708,-3.57187 c 0.0675,-3.403729 0.0957,-3.567979 0.59998,-3.489009 1.22521,0.19188 4.86278,2.68586 7.19625,4.933869 l 2.46104,2.37091 v 2.9869 c 0,1.6428 -0.0893,2.97717 -0.19844,2.96527 -0.10914,-0.0119 -1.0914,-0.72928 -2.18281,-1.59418 z m -26.36554,-6.19692 c -0.0599,-0.15606 -0.0755,-1.87668 -0.0347,-3.823609 l 0.0742,-3.53986 0.79375,-0.2331 c 1.04066,-0.30562 7.447,-0.30867 8.46667,-0.004 l 0.79375,0.23713 0.0742,3.53986 c 0.0408,1.946929 0.0245,3.669339 -0.0362,3.827579 -0.0781,0.20342 -0.82326,0.21499 -2.5436,0.0395 -1.50031,-0.15307 -3.40049,-0.15459 -4.95618,-0.004 -1.76287,0.17069 -2.55579,0.1588 -2.63187,-0.0395 z"
       id="path1" /></g></svg>
